<svg width="210" height="70" viewBox="0 0 210 70" fill="none" xmlns="http://www.w3.org/2000/svg">
<rect x="0.795455" y="0.795455" width="208.409" height="68.4091" rx="10.3409" fill="black"/>
<rect x="0.795455" y="0.795455" width="208.409" height="68.4091" rx="10.3409" stroke="#A6A6A6" stroke-width="1.59091"/>
<path d="M142.67 33.6016V37.6109H140.157V40.2402H142.67V49.1739C142.67 52.2244 144.05 53.4447 147.522 53.4447C148.132 53.4447 148.713 53.372 149.222 53.2849V50.6846C148.786 50.7282 148.51 50.7573 148.031 50.7573C146.476 50.7573 145.794 50.031 145.794 48.375V40.2402H149.222V37.6109H145.794V33.6016H142.67Z" fill="white"/>
<path d="M158.066 53.6626C162.685 53.6626 165.518 50.5684 165.518 45.4406C165.518 40.3419 162.671 37.2332 158.066 37.2332C153.447 37.2332 150.599 40.3419 150.599 45.4406C150.599 50.5684 153.432 53.6626 158.066 53.6626ZM158.066 50.888C155.35 50.888 153.824 48.8979 153.824 45.4406C153.824 42.0124 155.35 40.0078 158.066 40.0078C160.768 40.0078 162.308 42.0124 162.308 45.4406C162.308 48.8834 160.768 50.888 158.066 50.888Z" fill="white"/>
<path d="M167.942 53.3575H171.065V44.017C171.065 41.7945 172.735 40.2983 175.103 40.2983C175.655 40.2983 176.585 40.4 176.846 40.4871V37.4075C176.512 37.3204 175.917 37.2768 175.452 37.2768C173.389 37.2768 171.631 38.4099 171.181 39.9642H170.949V37.5383H167.942V53.3575Z" fill="white"/>
<path d="M184.601 39.8915C186.911 39.8915 188.421 41.504 188.494 43.988H180.505C180.679 41.5185 182.291 39.8915 184.601 39.8915ZM188.48 49.0867C187.899 50.3215 186.606 51.0042 184.717 51.0042C182.219 51.0042 180.606 49.2465 180.505 46.472V46.2977H191.675V45.2082C191.675 40.2402 189.017 37.2332 184.616 37.2332C180.156 37.2332 177.323 40.4436 177.323 45.4987C177.323 50.5539 180.098 53.6626 184.63 53.6626C188.247 53.6626 190.775 51.9194 191.487 49.0867H188.48Z" fill="white"/>
<path d="M122.189 47.5157C122.43 51.4002 125.667 53.8845 130.485 53.8845C135.634 53.8845 138.856 51.2798 138.856 47.1242C138.856 43.8571 137.019 42.0503 132.563 41.0114L130.169 40.4243C127.338 39.7618 126.194 38.8735 126.194 37.3227C126.194 35.3654 127.971 34.0856 130.636 34.0856C133.165 34.0856 134.912 35.3353 135.228 37.3377H138.51C138.314 33.6791 135.092 31.1045 130.681 31.1045C125.938 31.1045 122.776 33.6791 122.776 37.5485C122.776 40.7404 124.568 42.6375 128.498 43.5559L131.298 44.2335C134.174 44.911 135.438 45.9047 135.438 47.5609C135.438 49.4881 133.451 50.8883 130.741 50.8883C127.835 50.8883 125.818 49.5784 125.532 47.5157H122.189Z" fill="white"/>
<path d="M89.8362 37.2768C87.6863 37.2768 85.8269 38.3518 84.8682 40.153H84.6358V37.5383H81.6288V58.616H84.752V50.9606H84.9989C85.8269 52.6312 87.6137 53.619 89.8653 53.619C93.86 53.619 96.4021 50.4668 96.4021 45.4406C96.4021 40.4145 93.86 37.2768 89.8362 37.2768ZM88.9501 50.8154C86.3354 50.8154 84.6939 48.7526 84.6939 45.4552C84.6939 42.1431 86.3354 40.0804 88.9646 40.0804C91.6084 40.0804 93.1918 42.0996 93.1918 45.4406C93.1918 48.7962 91.6084 50.8154 88.9501 50.8154Z" fill="white"/>
<path d="M107.331 37.2768C105.181 37.2768 103.321 38.3518 102.363 40.153H102.13V37.5383H99.1232V58.616H102.246V50.9606H102.493C103.321 52.6312 105.108 53.619 107.36 53.619C111.354 53.619 113.897 50.4668 113.897 45.4406C113.897 40.4145 111.354 37.2768 107.331 37.2768ZM106.445 50.8154C103.83 50.8154 102.188 48.7526 102.188 45.4552C102.188 42.1431 103.83 40.0804 106.459 40.0804C109.103 40.0804 110.686 42.0996 110.686 45.4406C110.686 48.7962 109.103 50.8154 106.445 50.8154Z" fill="white"/>
<path d="M76.0253 53.3575H79.6087L71.7644 31.6315H68.1359L60.2916 53.3575H63.7545L65.757 47.591H74.0379L76.0253 53.3575ZM69.777 35.5762H70.033L73.1797 44.7604H66.6152L69.777 35.5762Z" fill="white"/>
<path d="M62.3895 15.2441V25.7249H66.1736C69.2968 25.7249 71.1054 23.8002 71.1054 20.4518C71.1054 17.1544 69.2823 15.2441 66.1736 15.2441H62.3895ZM64.0165 16.7258H65.9921C68.1638 16.7258 69.4493 18.1058 69.4493 20.4736C69.4493 22.8778 68.1856 24.2432 65.9921 24.2432H64.0165V16.7258Z" fill="white"/>
<path d="M76.6443 25.8774C78.954 25.8774 80.3703 24.3304 80.3703 21.7665C80.3703 19.2171 78.9467 17.6628 76.6443 17.6628C74.3346 17.6628 72.911 19.2171 72.911 21.7665C72.911 24.3304 74.3273 25.8774 76.6443 25.8774ZM76.6443 24.4902C75.286 24.4902 74.5234 23.4951 74.5234 21.7665C74.5234 20.0524 75.286 19.0501 76.6443 19.0501C77.9952 19.0501 78.7651 20.0524 78.7651 21.7665C78.7651 23.4879 77.9952 24.4902 76.6443 24.4902Z" fill="white"/>
<path d="M92.4315 17.8153H90.8699L89.4609 23.851H89.3374L87.7105 17.8153H86.2142L84.5873 23.851H84.4711L83.0548 17.8153H81.4714L83.6503 25.7249H85.2555L86.8825 19.8998H87.0059L88.6401 25.7249H90.2598L92.4315 17.8153Z" fill="white"/>
<path d="M94.2299 25.7249H95.7915V21.0983C95.7915 19.8635 96.5251 19.0936 97.6799 19.0936C98.8348 19.0936 99.3868 19.7255 99.3868 20.9966V25.7249H100.948V20.6044C100.948 18.7232 99.9751 17.6628 98.2101 17.6628C97.019 17.6628 96.2345 18.193 95.8496 19.0718H95.7334V17.8153H94.2299V25.7249Z" fill="white"/>
<path d="M103.408 25.7249H104.969V14.7285H103.408V25.7249Z" fill="white"/>
<path d="M110.842 25.8774C113.152 25.8774 114.568 24.3304 114.568 21.7665C114.568 19.2171 113.145 17.6628 110.842 17.6628C108.533 17.6628 107.109 19.2171 107.109 21.7665C107.109 24.3304 108.525 25.8774 110.842 25.8774ZM110.842 24.4902C109.484 24.4902 108.721 23.4951 108.721 21.7665C108.721 20.0524 109.484 19.0501 110.842 19.0501C112.193 19.0501 112.963 20.0524 112.963 21.7665C112.963 23.4879 112.193 24.4902 110.842 24.4902Z" fill="white"/>
<path d="M119.221 24.541C118.371 24.541 117.754 24.127 117.754 23.4152C117.754 22.718 118.248 22.3475 119.337 22.2749L121.269 22.1514V22.8124C121.269 23.7929 120.398 24.541 119.221 24.541ZM118.822 25.8557C119.86 25.8557 120.725 25.4053 121.197 24.6137H121.32V25.7249H122.824V20.3211C122.824 18.6506 121.705 17.6628 119.722 17.6628C117.928 17.6628 116.65 18.5344 116.49 19.8926H118.001C118.175 19.3333 118.778 19.0137 119.65 19.0137C120.717 19.0137 121.269 19.4858 121.269 20.3211V21.0038L119.127 21.1273C117.245 21.2435 116.185 22.0643 116.185 23.4879C116.185 24.9332 117.296 25.8557 118.822 25.8557Z" fill="white"/>
<path d="M128.123 25.8557C129.212 25.8557 130.135 25.34 130.607 24.4757H130.73V25.7249H132.227V14.7285H130.665V19.0718H130.549C130.12 18.2003 129.205 17.6846 128.123 17.6846C126.125 17.6846 124.84 19.2679 124.84 21.7665C124.84 24.2723 126.111 25.8557 128.123 25.8557ZM128.566 19.0864C129.873 19.0864 130.694 20.125 130.694 21.7737C130.694 23.4298 129.881 24.4539 128.566 24.4539C127.244 24.4539 126.452 23.4443 126.452 21.7665C126.452 20.1032 127.251 19.0864 128.566 19.0864Z" fill="white"/>
<path d="M142.353 25.8774C144.663 25.8774 146.079 24.3304 146.079 21.7665C146.079 19.2171 144.655 17.6628 142.353 17.6628C140.043 17.6628 138.62 19.2171 138.62 21.7665C138.62 24.3304 140.036 25.8774 142.353 25.8774ZM142.353 24.4902C140.995 24.4902 140.232 23.4951 140.232 21.7665C140.232 20.0524 140.995 19.0501 142.353 19.0501C143.704 19.0501 144.474 20.0524 144.474 21.7665C144.474 23.4879 143.704 24.4902 142.353 24.4902Z" fill="white"/>
<path d="M148.146 25.7249H149.708V21.0983C149.708 19.8635 150.441 19.0936 151.596 19.0936C152.751 19.0936 153.303 19.7255 153.303 20.9966V25.7249H154.864V20.6044C154.864 18.7232 153.891 17.6628 152.126 17.6628C150.935 17.6628 150.151 18.193 149.766 19.0718H149.649V17.8153H148.146V25.7249Z" fill="white"/>
<path d="M162.056 15.847V17.8516H160.8V19.1663H162.056V23.6331C162.056 25.1584 162.746 25.7685 164.482 25.7685C164.787 25.7685 165.078 25.7322 165.332 25.6886V24.3885C165.114 24.4103 164.976 24.4248 164.737 24.4248C163.959 24.4248 163.618 24.0617 163.618 23.2336V19.1663H165.332V17.8516H163.618V15.847H162.056Z" fill="white"/>
<path d="M167.428 25.7249H168.99V21.1055C168.99 19.9071 169.702 19.1009 170.98 19.1009C172.084 19.1009 172.672 19.7401 172.672 21.0038V25.7249H174.234V20.6189C174.234 18.7377 173.195 17.67 171.51 17.67C170.319 17.67 169.484 18.2003 169.099 19.0864H168.975V14.7285H167.428V25.7249Z" fill="white"/>
<path d="M179.867 18.9919C181.022 18.9919 181.777 19.7982 181.814 21.0402H177.819C177.906 19.8054 178.712 18.9919 179.867 18.9919ZM181.807 23.5895C181.516 24.2069 180.87 24.5483 179.925 24.5483C178.676 24.5483 177.87 23.6694 177.819 22.2822V22.195H183.404V21.6503C183.404 19.1663 182.075 17.6628 179.875 17.6628C177.645 17.6628 176.228 19.2679 176.228 21.7955C176.228 24.3231 177.616 25.8774 179.882 25.8774C181.69 25.8774 182.954 25.0059 183.31 23.5895H181.807Z" fill="white"/>
<path d="M43.3458 35.5265C43.3837 32.5848 44.9636 29.8012 47.4698 28.2604C45.8887 26.0023 43.2405 24.5707 40.4853 24.4845C37.5466 24.176 34.6977 26.2429 33.2002 26.2429C31.6737 26.2429 29.3681 24.5151 26.8853 24.5662C23.6491 24.6707 20.6322 26.5106 19.0577 29.3399C15.6732 35.1997 18.1977 43.8115 21.4398 48.5481C23.0619 50.8675 24.9576 53.4582 27.4381 53.3664C29.8655 53.2657 30.7721 51.8185 33.7021 51.8185C36.6049 51.8185 37.4555 53.3664 39.9864 53.308C42.591 53.2657 44.2321 50.9783 45.7973 48.637C46.9627 46.9843 47.8595 45.1578 48.4545 43.2251C45.3935 41.9304 43.3494 38.85 43.3458 35.5265Z" fill="white"/>
<path d="M38.5654 21.3695C39.9856 19.6646 40.6852 17.4733 40.5158 15.2609C38.3461 15.4888 36.3419 16.5257 34.9025 18.1652C33.495 19.767 32.7626 21.9198 32.901 24.0476C35.0715 24.07 37.2053 23.0611 38.5654 21.3695Z" fill="white"/>
</svg>
