<svg width="40" height="40" viewBox="0 0 40 40" fill="none" xmlns="http://www.w3.org/2000/svg">
<mask id="mask0_541_1072" style="mask-type:luminance" maskUnits="userSpaceOnUse" x="0" y="0" width="40" height="40">
<path d="M35.625 1.25H4.375C3.5462 1.25 2.75134 1.57924 2.16529 2.16529C1.57924 2.75134 1.25 3.5462 1.25 4.375V35.625C1.25 36.4538 1.57924 37.2487 2.16529 37.8347C2.75134 38.4208 3.5462 38.75 4.375 38.75H35.625C36.4538 38.75 37.2487 38.4208 37.8347 37.8347C38.4208 37.2487 38.75 36.4538 38.75 35.625V4.375C38.75 3.5462 38.4208 2.75134 37.8347 2.16529C37.2487 1.57924 36.4538 1.25 35.625 1.25Z" fill="white" stroke="white" stroke-width="2"/>
<path d="M15.25 9.5835C15.7125 9.5835 16.1396 9.83454 16.3646 10.2397L17.9229 13.047C18.1271 13.4147 18.1365 13.8595 17.9479 14.2345L16.875 16.8752C16.875 16.8752 17.1375 19.221 18.9583 21.0418C20.7792 22.8627 23.125 23.1252 23.125 23.1252L25.7573 22.0439C26.1323 21.8564 26.5781 21.8668 26.9458 22.07L29.7615 23.6356C30.1656 23.8606 30.4167 24.2866 30.4167 24.7502V27.9825C30.4167 29.6283 28.8875 30.8168 27.3281 30.2908C24.124 29.2095 19.1511 27.1522 16 23.9991C12.8479 20.8481 10.7906 15.8762 9.70939 12.672C9.18335 11.1127 10.3719 9.5835 12.0177 9.5835H15.25Z" fill="black" stroke="black" stroke-width="1.959" stroke-linejoin="round"/>
</mask>
<g mask="url(#mask0_541_1072)">
<path d="M-5 -5H45V45H-5V-5Z" fill="white"/>
</g>
</svg>
