<svg width="237" height="70" viewBox="0 0 237 70" fill="none" xmlns="http://www.w3.org/2000/svg">
<rect x="0.886825" y="0.795455" width="234.659" height="68.4091" rx="7.1591" fill="black"/>
<rect x="0.886825" y="0.795455" width="234.659" height="68.4091" rx="7.1591" stroke="#A6A6A6" stroke-width="1.59091"/>
<path d="M119.33 38.0645C115.214 38.0645 111.859 41.1952 111.859 45.5072C111.859 49.793 115.214 52.95 119.33 52.95C123.447 52.95 126.802 49.793 126.802 45.5072C126.8 41.1952 123.446 38.0645 119.33 38.0645ZM119.33 50.0205C117.074 50.0205 115.13 48.1602 115.13 45.509C115.13 42.8297 117.076 40.9975 119.33 40.9975C121.585 40.9975 123.53 42.8297 123.53 45.509C123.53 48.1585 121.585 50.0205 119.33 50.0205ZM103.03 38.0645C98.914 38.0645 95.5592 41.1952 95.5592 45.5072C95.5592 49.793 98.914 52.95 103.03 52.95C107.148 52.95 110.503 49.793 110.503 45.5072C110.503 41.1952 107.148 38.0645 103.03 38.0645ZM103.03 50.0205C100.774 50.0205 98.83 48.1602 98.83 45.509C98.83 42.8297 100.776 40.9975 103.03 40.9975C105.286 40.9975 107.23 42.8297 107.23 45.509C107.232 48.1585 105.286 50.0205 103.03 50.0205ZM83.6435 40.35V43.507H91.2C90.9742 45.2832 90.3827 46.58 89.4797 47.4812C88.3807 48.5802 86.6605 49.793 83.6435 49.793C78.992 49.793 75.3555 46.0427 75.3555 41.3912C75.3555 36.7397 78.992 32.9895 83.6435 32.9895C86.153 32.9895 87.9852 33.9765 89.338 35.2452L91.5657 33.0175C89.6757 31.2132 87.168 29.8325 83.6435 29.8325C77.2717 29.8325 71.915 35.0195 71.915 41.3912C71.915 47.763 77.2717 52.95 83.6435 52.95C87.0822 52.95 89.6775 51.8212 91.7057 49.7072C93.7917 47.6212 94.441 44.6882 94.441 42.3205C94.441 41.589 94.385 40.9117 94.2712 40.3482H83.6435V40.35ZM162.933 42.8017C162.313 41.1392 160.423 38.0645 156.561 38.0645C152.727 38.0645 149.54 41.0815 149.54 45.5072C149.54 49.6792 152.699 52.95 156.927 52.95C160.337 52.95 162.311 50.864 163.13 49.6512L160.593 47.959C159.748 49.1997 158.591 50.017 156.927 50.017C155.264 50.017 154.079 49.2557 153.318 47.7612L163.27 43.6452L162.933 42.8017ZM152.783 45.2832C152.699 42.4062 155.01 40.9415 156.675 40.9415C157.971 40.9415 159.07 41.5907 159.438 42.52L152.783 45.2832ZM144.692 52.5002H147.961V30.6235H144.692V52.5002ZM139.334 39.7287H139.222C138.489 38.8537 137.078 38.0645 135.304 38.0645C131.581 38.0645 128.171 41.3352 128.171 45.537C128.171 49.709 131.581 52.9517 135.304 52.9517C137.08 52.9517 138.489 52.1625 139.222 51.2612H139.334V52.3322C139.334 55.1795 137.811 56.702 135.36 56.702C133.358 56.702 132.117 55.2652 131.609 54.0525L128.762 55.2372C129.579 57.2095 131.749 59.635 135.36 59.635C139.194 59.635 142.437 57.3792 142.437 51.8807V38.5177H139.336V39.7287H139.334ZM135.585 50.0205C133.33 50.0205 131.441 48.1305 131.441 45.537C131.441 42.9137 133.33 40.9975 135.585 40.9975C137.811 40.9975 139.56 42.9137 139.56 45.537C139.56 48.1305 137.811 50.0205 135.585 50.0205ZM178.252 30.6235H170.428V52.5002H173.692V44.2122H178.25C181.869 44.2122 185.429 41.5925 185.429 37.4187C185.429 33.245 181.871 30.6235 178.252 30.6235ZM178.336 41.1672H173.692V33.6685H178.336C180.777 33.6685 182.163 35.6897 182.163 37.4187C182.163 39.1127 180.777 41.1672 178.336 41.1672ZM198.517 38.026C196.153 38.026 193.705 39.0672 192.691 41.3755L195.589 42.5847C196.209 41.3755 197.364 40.98 198.573 40.98C200.262 40.98 201.979 41.9932 202.007 43.794V44.0197C201.415 43.682 200.148 43.1762 198.601 43.1762C195.477 43.1762 192.296 44.893 192.296 48.1007C192.296 51.0285 194.858 52.9132 197.728 52.9132C199.922 52.9132 201.133 51.928 201.893 50.773H202.005V52.4617H205.158V44.074C205.16 40.1925 202.259 38.026 198.517 38.026ZM198.122 50.0152C197.054 50.0152 195.561 49.4797 195.561 48.1567C195.561 46.468 197.42 45.8205 199.025 45.8205C200.458 45.8205 201.135 46.1302 202.007 46.552C201.753 48.5802 200.008 50.0152 198.122 50.0152ZM216.642 38.5037L212.899 47.9887H212.787L208.902 38.5037H205.384L211.21 51.76L207.888 59.1345H211.294L220.273 38.5037H216.642ZM187.231 52.5002H190.495V30.6235H187.231V52.5002Z" fill="white"/>
<path d="M83.0731 17.9252C83.0731 19.3917 82.6391 20.559 81.7693 21.4305C80.7823 22.4665 79.4943 22.9845 77.9123 22.9845C76.3968 22.9845 75.1071 22.4595 74.0483 21.4095C72.9878 20.3577 72.4576 19.0557 72.4576 17.5017C72.4576 15.946 72.9878 14.644 74.0483 13.594C75.1071 12.5422 76.3968 12.0172 77.9123 12.0172C78.6648 12.0172 79.3841 12.1642 80.0666 12.4565C80.7508 12.7505 81.2986 13.1407 81.7081 13.629L80.7858 14.553C80.0911 13.7217 79.1338 13.307 77.9106 13.307C76.8046 13.307 75.8491 13.6955 75.0423 14.4725C74.2356 15.2495 73.8331 16.2592 73.8331 17.5C73.8331 18.7407 74.2356 19.7505 75.0423 20.5275C75.8491 21.3045 76.8046 21.693 77.9106 21.693C79.0831 21.693 80.0613 21.3027 80.8436 20.5205C81.3511 20.0112 81.6451 19.3025 81.7238 18.3942H77.9106V17.1325H82.9978C83.0503 17.4072 83.0731 17.6715 83.0731 17.9252Z" fill="white"/>
<path d="M91.1408 13.5398H86.3598V16.8683H90.6718V18.1301H86.3598V21.4586H91.1408V22.7501H85.0105V12.2501H91.1408V13.5398Z" fill="white"/>
<path d="M96.8298 22.7501H95.4806V13.5398H92.5476V12.2501H99.7628V13.5398H96.8298V22.7501Z" fill="white"/>
<path d="M104.983 22.7501V12.2501H106.332V22.7501H104.983Z" fill="white"/>
<path d="M112.316 22.7501H110.967V13.5398H108.034V12.2501H115.249V13.5398H112.316V22.7501Z" fill="white"/>
<path d="M128.907 21.3938C127.875 22.4543 126.592 22.9846 125.057 22.9846C123.522 22.9846 122.24 22.4543 121.209 21.3938C120.176 20.3333 119.662 19.0348 119.662 17.5C119.662 15.9653 120.176 14.6668 121.209 13.6063C122.24 12.5458 123.522 12.0138 125.057 12.0138C126.583 12.0138 127.864 12.5475 128.9 13.6133C129.936 14.679 130.454 15.974 130.454 17.5C130.454 19.0348 129.938 20.3333 128.907 21.3938ZM122.205 20.5135C122.982 21.3011 123.932 21.6931 125.057 21.6931C126.182 21.6931 127.134 21.2993 127.91 20.5135C128.687 19.726 129.077 18.7215 129.077 17.5C129.077 16.2785 128.687 15.274 127.91 14.4865C127.134 13.699 126.182 13.307 125.057 13.307C123.932 13.307 122.982 13.7008 122.205 14.4865C121.429 15.274 121.039 16.2785 121.039 17.5C121.039 18.7215 121.429 19.726 122.205 20.5135Z" fill="white"/>
<path d="M132.348 22.7501V12.2501H133.989L139.092 20.4173H139.15L139.092 18.3943V12.2501H140.441V22.7501H139.033L133.693 14.1856H133.636L133.693 16.2086V22.7501H132.348Z" fill="white"/>
<path d="M83.0731 17.9252C83.0731 19.3917 82.6391 20.559 81.7693 21.4305C80.7823 22.4665 79.4943 22.9845 77.9123 22.9845C76.3968 22.9845 75.1071 22.4595 74.0483 21.4095C72.9878 20.3577 72.4576 19.0557 72.4576 17.5017C72.4576 15.946 72.9878 14.644 74.0483 13.594C75.1071 12.5422 76.3968 12.0172 77.9123 12.0172C78.6648 12.0172 79.3841 12.1642 80.0666 12.4565C80.7508 12.7505 81.2986 13.1407 81.7081 13.629L80.7858 14.553C80.0911 13.7217 79.1338 13.307 77.9106 13.307C76.8046 13.307 75.8491 13.6955 75.0423 14.4725C74.2356 15.2495 73.8331 16.2592 73.8331 17.5C73.8331 18.7407 74.2356 19.7505 75.0423 20.5275C75.8491 21.3045 76.8046 21.693 77.9106 21.693C79.0831 21.693 80.0613 21.3027 80.8436 20.5205C81.3511 20.0112 81.6451 19.3025 81.7238 18.3942H77.9106V17.1325H82.9978C83.0503 17.4072 83.0731 17.6715 83.0731 17.9252Z" stroke="white" stroke-width="0.318182" stroke-miterlimit="10"/>
<path d="M91.1408 13.5398H86.3598V16.8683H90.6718V18.1301H86.3598V21.4586H91.1408V22.7501H85.0105V12.2501H91.1408V13.5398Z" stroke="white" stroke-width="0.318182" stroke-miterlimit="10"/>
<path d="M96.8298 22.7501H95.4806V13.5398H92.5476V12.2501H99.7628V13.5398H96.8298V22.7501Z" stroke="white" stroke-width="0.318182" stroke-miterlimit="10"/>
<path d="M104.983 22.7501V12.2501H106.332V22.7501H104.983Z" stroke="white" stroke-width="0.318182" stroke-miterlimit="10"/>
<path d="M112.316 22.7501H110.967V13.5398H108.034V12.2501H115.249V13.5398H112.316V22.7501Z" stroke="white" stroke-width="0.318182" stroke-miterlimit="10"/>
<path d="M128.907 21.3938C127.875 22.4543 126.592 22.9846 125.057 22.9846C123.522 22.9846 122.24 22.4543 121.209 21.3938C120.176 20.3333 119.662 19.0348 119.662 17.5C119.662 15.9653 120.176 14.6668 121.209 13.6063C122.24 12.5458 123.522 12.0138 125.057 12.0138C126.583 12.0138 127.864 12.5475 128.9 13.6133C129.936 14.679 130.454 15.974 130.454 17.5C130.454 19.0348 129.938 20.3333 128.907 21.3938ZM122.205 20.5135C122.982 21.3011 123.932 21.6931 125.057 21.6931C126.182 21.6931 127.134 21.2993 127.91 20.5135C128.687 19.726 129.077 18.7215 129.077 17.5C129.077 16.2785 128.687 15.274 127.91 14.4865C127.134 13.699 126.182 13.307 125.057 13.307C123.932 13.307 122.982 13.7008 122.205 14.4865C121.429 15.274 121.039 16.2785 121.039 17.5C121.039 18.7215 121.429 19.726 122.205 20.5135Z" stroke="white" stroke-width="0.318182" stroke-miterlimit="10"/>
<path d="M132.348 22.7501V12.2501H133.989L139.092 20.4173H139.15L139.092 18.3943V12.2501H140.441V22.7501H139.033L133.693 14.1856H133.636L133.693 16.2086V22.7501H132.348Z" stroke="white" stroke-width="0.318182" stroke-miterlimit="10"/>
<g filter="url(#filter0_ii_541_1013)">
<path d="M18.3543 13.1916C17.845 13.7306 17.544 14.5671 17.544 15.6503V54.3534C17.544 55.4384 17.845 56.2731 18.3543 56.8121L18.4838 56.9381L40.1645 35.2574V35.0019V34.7464L18.4838 13.0638L18.3543 13.1916Z" fill="url(#paint0_linear_541_1013)"/>
<path d="M47.3901 42.4866L40.1644 35.2574V35.0019V34.7464L47.3919 27.5189L47.5546 27.6116L56.1174 32.4766C58.5621 33.8661 58.5621 36.1394 56.1174 37.5306L47.5546 42.3956L47.3901 42.4866Z" fill="url(#paint1_linear_541_1013)"/>
<g filter="url(#filter1_i_541_1013)">
<path d="M47.5547 42.3938L40.1627 35.0018L18.3542 56.812C19.1592 57.666 20.4909 57.771 21.9907 56.9205L47.5547 42.3938Z" fill="url(#paint2_linear_541_1013)"/>
</g>
<path d="M47.5547 27.6098L21.9907 13.0848C20.4909 12.2325 19.1592 12.3393 18.3542 13.1933L40.1645 35.0035L47.5547 27.6098Z" fill="url(#paint3_linear_541_1013)"/>
</g>
<defs>
<filter id="filter0_ii_541_1013" x="17.544" y="12.4966" width="40.4069" height="45.0114" filterUnits="userSpaceOnUse" color-interpolation-filters="sRGB">
<feFlood flood-opacity="0" result="BackgroundImageFix"/>
<feBlend mode="normal" in="SourceGraphic" in2="BackgroundImageFix" result="shape"/>
<feColorMatrix in="SourceAlpha" type="matrix" values="0 0 0 0 0 0 0 0 0 0 0 0 0 0 0 0 0 0 127 0" result="hardAlpha"/>
<feOffset dy="-0.238637"/>
<feComposite in2="hardAlpha" operator="arithmetic" k2="-1" k3="1"/>
<feColorMatrix type="matrix" values="0 0 0 0 0 0 0 0 0 0 0 0 0 0 0 0 0 0 0.12 0"/>
<feBlend mode="normal" in2="shape" result="effect1_innerShadow_541_1013"/>
<feColorMatrix in="SourceAlpha" type="matrix" values="0 0 0 0 0 0 0 0 0 0 0 0 0 0 0 0 0 0 127 0" result="hardAlpha"/>
<feOffset dy="0.238637"/>
<feComposite in2="hardAlpha" operator="arithmetic" k2="-1" k3="1"/>
<feColorMatrix type="matrix" values="0 0 0 0 1 0 0 0 0 1 0 0 0 0 1 0 0 0 0.25 0"/>
<feBlend mode="normal" in2="effect1_innerShadow_541_1013" result="effect2_innerShadow_541_1013"/>
</filter>
<filter id="filter1_i_541_1013" x="18.3542" y="35.0018" width="29.2005" height="22.5062" filterUnits="userSpaceOnUse" color-interpolation-filters="sRGB">
<feFlood flood-opacity="0" result="BackgroundImageFix"/>
<feBlend mode="normal" in="SourceGraphic" in2="BackgroundImageFix" result="shape"/>
<feColorMatrix in="SourceAlpha" type="matrix" values="0 0 0 0 0 0 0 0 0 0 0 0 0 0 0 0 0 0 127 0" result="hardAlpha"/>
<feOffset dy="-0.238637"/>
<feComposite in2="hardAlpha" operator="arithmetic" k2="-1" k3="1"/>
<feColorMatrix type="matrix" values="0 0 0 0 0 0 0 0 0 0 0 0 0 0 0 0 0 0 0.08 0"/>
<feBlend mode="normal" in2="shape" result="effect1_innerShadow_541_1013"/>
</filter>
<linearGradient id="paint0_linear_541_1013" x1="38.2427" y1="15.2408" x2="8.87415" y2="44.6094" gradientUnits="userSpaceOnUse">
<stop stop-color="#00A0FF"/>
<stop offset="0.0066" stop-color="#00A1FF"/>
<stop offset="0.2601" stop-color="#00BEFF"/>
<stop offset="0.5122" stop-color="#00D2FF"/>
<stop offset="0.7604" stop-color="#00DFFF"/>
<stop offset="1" stop-color="#00E3FF"/>
</linearGradient>
<linearGradient id="paint1_linear_541_1013" x1="59.2998" y1="35.0019" x2="16.9569" y2="35.0019" gradientUnits="userSpaceOnUse">
<stop stop-color="#FFE000"/>
<stop offset="0.4087" stop-color="#FFBD00"/>
<stop offset="0.7754" stop-color="#FFA500"/>
<stop offset="1" stop-color="#FF9C00"/>
</linearGradient>
<linearGradient id="paint2_linear_541_1013" x1="43.5404" y1="39.0161" x2="3.71299" y2="78.8435" gradientUnits="userSpaceOnUse">
<stop stop-color="#FF3A44"/>
<stop offset="1" stop-color="#C31162"/>
</linearGradient>
<linearGradient id="paint3_linear_541_1013" x1="12.8616" y1="0.309416" x2="30.6457" y2="18.0935" gradientUnits="userSpaceOnUse">
<stop stop-color="#32A071"/>
<stop offset="0.0685" stop-color="#2DA771"/>
<stop offset="0.4762" stop-color="#15CF74"/>
<stop offset="0.8009" stop-color="#06E775"/>
<stop offset="1" stop-color="#00F076"/>
</linearGradient>
</defs>
</svg>
