<svg width="50" height="50" viewBox="0 0 50 50" fill="none" xmlns="http://www.w3.org/2000/svg">
<path fill-rule="evenodd" clip-rule="evenodd" d="M0 25C0 38.8075 11.1925 50 25 50C38.8075 50 50 38.8075 50 25C50 11.1925 38.8075 0 25 0C11.1925 0 0 11.1925 0 25ZM33.825 26.175C34.1761 26.5266 34.3734 27.0031 34.3734 27.5C34.3734 27.9969 34.1761 28.4734 33.825 28.825L26.325 36.325C25.9734 36.6761 25.4969 36.8734 25 36.8734C24.5031 36.8734 24.0266 36.6761 23.675 36.325L16.175 28.825C15.9908 28.6533 15.843 28.4463 15.7405 28.2163C15.6381 27.9863 15.583 27.7381 15.5785 27.4863C15.5741 27.2345 15.6204 26.9845 15.7147 26.751C15.809 26.5175 15.9494 26.3055 16.1274 26.1274C16.3055 25.9494 16.5175 25.809 16.751 25.7147C16.9845 25.6204 17.2345 25.5741 17.4863 25.5785C17.7381 25.583 17.9863 25.6381 18.2163 25.7405C18.4463 25.843 18.6533 25.9908 18.825 26.175L23.125 30.475V15C23.125 14.5027 23.3225 14.0258 23.6742 13.6742C24.0258 13.3225 24.5027 13.125 25 13.125C25.4973 13.125 25.9742 13.3225 26.3258 13.6742C26.6775 14.0258 26.875 14.5027 26.875 15V30.475L31.175 26.175C31.5266 25.8239 32.0031 25.6266 32.5 25.6266C32.9969 25.6266 33.4734 25.8239 33.825 26.175Z" fill="#26A69A"/>
</svg>
