<svg width="61" height="61" viewBox="0 0 61 61" fill="none" xmlns="http://www.w3.org/2000/svg">
<path fill-rule="evenodd" clip-rule="evenodd" d="M11.5417 0.708252C8.6685 0.708252 5.913 1.84962 3.88135 3.88126C1.84971 5.91291 0.708344 8.66841 0.708344 11.5416V49.4583C0.708344 52.3314 1.84971 55.0869 3.88135 57.1186C5.913 59.1502 8.6685 60.2916 11.5417 60.2916H49.4583C52.3315 60.2916 55.087 59.1502 57.1187 57.1186C59.1503 55.0869 60.2917 52.3314 60.2917 49.4583V11.5416C60.2917 8.66841 59.1503 5.91291 57.1187 3.88126C55.087 1.84962 52.3315 0.708252 49.4583 0.708252H11.5417ZM10.6371 10.1874C10.3406 10.2976 10.074 10.4755 9.85838 10.7069C9.6428 10.9384 9.48424 11.2169 9.39533 11.5205C9.30643 11.824 9.28963 12.1441 9.34629 12.4553C9.40295 12.7665 9.53149 13.0601 9.72168 13.3128L24.9263 33.4899L8.90647 50.6743L8.7873 50.8124H14.3313L27.4125 36.786L37.4658 50.1326C37.6991 50.4416 38.0158 50.6774 38.3786 50.8124H50.3548C50.6508 50.7017 50.9169 50.5233 51.1319 50.2916C51.3469 50.06 51.5049 49.7813 51.5932 49.4778C51.6816 49.1743 51.6979 48.8544 51.6409 48.5435C51.5839 48.2327 51.4551 47.9394 51.2648 47.687L36.0602 27.5099L52.2127 10.1874H46.6606L33.5794 24.2166L23.5206 10.8699C23.2878 10.56 22.9711 10.3232 22.6079 10.1874H10.6371ZM40.1038 46.8799L15.4173 14.1199H20.8854L45.5692 46.8772L40.1038 46.8799Z" fill="black"/>
</svg>
