<svg width="48" height="54" viewBox="0 0 48 54" fill="none" xmlns="http://www.w3.org/2000/svg">
<path d="M26.9167 0.75C15.9208 0.75 7.05417 9.35417 6.5 20.175L0.899999 27.5542C0.199999 28.4583 0.9 29.9167 2.125 29.9167H6.5V38.6667C6.5 41.9042 9.09583 44.5 12.3333 44.5H15.25V53.25H35.6667V39.5708C42.5792 36.3042 47.3333 29.3333 47.3333 21.1667C47.3333 9.90833 38.2333 0.75 26.9167 0.75ZM29.8333 32.8333H24V29.9167H29.8333V32.8333ZM34.5 19.7083C33.7232 21.0199 32.6172 22.1057 31.2917 22.8583V27H22.5417V22.8583C18.3708 20.4375 16.9125 15.1 19.3333 10.9583C21.7542 6.81667 27.1208 5.3 31.2917 7.69167C35.4625 10.0833 36.9208 15.4792 34.5 19.7083Z" fill="#26A69A"/>
</svg>
