<svg width="126" height="126" viewBox="0 0 126 126" fill="none" xmlns="http://www.w3.org/2000/svg">
<path fill-rule="evenodd" clip-rule="evenodd" d="M63 0.500122C71.2076 0.500084 79.3349 2.11666 86.9178 5.25756C94.5006 8.39846 101.391 13.0022 107.194 18.8058C112.998 24.6095 117.602 31.4994 120.743 39.0823C123.884 46.6651 125.5 54.7924 125.5 63C125.5 97.5179 97.5179 125.5 63 125.5C28.4824 125.5 0.500092 97.5179 0.500092 63C0.500092 28.4824 28.4824 0.500122 63 0.500122ZM69.2502 69.2502H56.7501C41.2769 69.2502 27.9929 78.6214 22.2633 91.9987C31.3289 104.711 46.1965 113 63 113C79.8035 113 94.6711 104.711 103.737 91.9978C98.0074 78.6214 84.7233 69.2502 69.2502 69.2502ZM63 19.2501C52.6447 19.2501 44.25 27.6449 44.25 38.0001C44.25 48.3554 52.6447 56.7501 63 56.7501C73.3553 56.7501 81.75 48.3554 81.75 38.0001C81.75 27.6449 73.3556 19.2501 63 19.2501Z" fill="black"/>
</svg>
