<svg width="60" height="60" viewBox="0 0 60 60" fill="none" xmlns="http://www.w3.org/2000/svg">
<path d="M50.4167 0.833328H9.58333C4.625 0.833328 0.833333 4.62499 0.833333 9.58333V50.4167C0.833333 55.375 4.625 59.1667 9.58333 59.1667H50.4167C55.375 59.1667 59.1667 55.375 59.1667 50.4167V9.58333C59.1667 4.62499 55.375 0.833328 50.4167 0.833328ZM18.3333 44.5833C18.3333 46.3333 17.1667 47.5 15.4167 47.5C13.6667 47.5 12.5 46.3333 12.5 44.5833V32.9167C12.5 31.1667 13.6667 30 15.4167 30C17.1667 30 18.3333 31.1667 18.3333 32.9167V44.5833ZM32.9167 44.5833C32.9167 46.3333 31.75 47.5 30 47.5C28.25 47.5 27.0833 46.3333 27.0833 44.5833V15.4167C27.0833 13.6667 28.25 12.5 30 12.5C31.75 12.5 32.9167 13.6667 32.9167 15.4167V44.5833ZM47.5 44.5833C47.5 46.3333 46.3333 47.5 44.5833 47.5C42.8333 47.5 41.6667 46.3333 41.6667 44.5833V27.0833C41.6667 25.3333 42.8333 24.1667 44.5833 24.1667C46.3333 24.1667 47.5 25.3333 47.5 27.0833V44.5833Z" fill="#CBFFD0"/>
</svg>
