<svg width="57" height="57" viewBox="0 0 57 57" fill="none" xmlns="http://www.w3.org/2000/svg">
<path d="M41.6667 0.75C43.8985 0.749876 46.0461 1.60262 47.6699 3.13374C49.2938 4.66487 50.2712 6.75865 50.4021 8.98667L50.4167 9.5V38.6667H52.6042C54.4913 38.6667 56.0458 40.1017 56.2325 41.9392L56.25 42.3125V47.4167C56.2501 49.6485 55.3974 51.7961 53.8663 53.4199C52.3351 55.0438 50.2414 56.0212 48.0134 56.1521L47.5 56.1667H18.3333C16.1015 56.1668 13.9539 55.3141 12.3301 53.7829C10.7062 52.2518 9.72886 50.158 9.59793 47.93L9.58334 47.4167V18.25H4.47918C3.57659 18.2504 2.70594 17.916 2.03569 17.3115C1.36545 16.707 0.943268 15.8753 0.850844 14.9775L0.833344 14.6042V9.5C0.833219 7.26814 1.68596 5.12058 3.21709 3.49674C4.74822 1.8729 6.84199 0.89552 9.07001 0.764584L9.58334 0.75H41.6667ZM50.4167 44.5H24.1667V47.4167C24.1667 48.4375 23.9917 49.4204 23.6708 50.3333H47.5C48.2736 50.3333 49.0154 50.0261 49.5624 49.4791C50.1094 48.9321 50.4167 48.1902 50.4167 47.4167V44.5ZM30 27H24.1667C23.4233 27.0008 22.7083 27.2855 22.1677 27.7958C21.6271 28.3061 21.3018 29.0036 21.2583 29.7457C21.2147 30.4879 21.4561 31.2186 21.9333 31.7887C22.4104 32.3588 23.0872 32.7251 23.8254 32.8129L24.1667 32.8333H30C30.7434 32.8325 31.4584 32.5479 31.999 32.0375C32.5396 31.5272 32.8649 30.8297 32.9084 30.0876C32.952 29.3455 32.7105 28.6147 32.2334 28.0447C31.7563 27.4746 31.0795 27.1082 30.3413 27.0204L30 27ZM35.8333 15.3333H24.1667C23.3931 15.3333 22.6513 15.6406 22.1043 16.1876C21.5573 16.7346 21.25 17.4765 21.25 18.25C21.25 19.0236 21.5573 19.7654 22.1043 20.3124C22.6513 20.8594 23.3931 21.1667 24.1667 21.1667H35.8333C36.6069 21.1667 37.3488 20.8594 37.8957 20.3124C38.4427 19.7654 38.75 19.0236 38.75 18.25C38.75 17.4765 38.4427 16.7346 37.8957 16.1876C37.3488 15.6406 36.6069 15.3333 35.8333 15.3333ZM9.58334 6.58333C8.8098 6.58333 8.06793 6.89063 7.52095 7.43761C6.97397 7.98459 6.66668 8.72645 6.66668 9.5V12.4167H9.58334V6.58333Z" fill="#26A69A"/>
</svg>
